<svg xmlns="http://www.w3.org/2000/svg" viewBox="0 0 48 48" width="48" height="48">
  <defs>
    
  </defs>
  <g class="wa">
    <circle cx="24" cy="24" r="22" fill="rgba(127,255,0,.08)" stroke="#7fff00" stroke-width="1.2"></circle>
    <path d="M24 12c-6.6 0-12 5.4-12 12 0 2.1.5 4.1 1.5 5.9L12 36l6.3-1.5c1.7.9 3.6 1.4 5.7 1.4 6.6 0 12-5.4 12-12S30.6 12 24 12zm5.9 16.5c-.3.8-1.5 1.5-2.1 1.6-.5.1-1.2.1-1.9-.1-.4-.1-1-.3-1.7-.6-3-1.3-4.9-4.3-5.1-4.5-.2-.2-1.4-1.9-1.4-3.6s.9-2.6 1.2-2.9c.3-.3.7-.4 1-.4.2 0 .5 0 .7.1.2 0 .6-.1.9.7l1.1 2.8c.1.2.1.5 0 .7l-.6.7-.3.4c.2.4 1 1.6 2.1 2.5 1.4 1.2 2.5 1.6 2.9 1.8.2.1.5 0 .7-.2l.8-.9c.2-.3.5-.3.8-.2l2.6 1.2c.2.1.4.2.5.4.1.8-.1 1.6-.4 2.4z" fill="#7fff00"></path>
  </g>
</svg>